<mxfile host="app.diagrams.net" modified="2024-03-14T12:48:42.715Z" agent="Mozilla/5.0 (Windows NT 10.0; Win64; x64) AppleWebKit/537.36 (KHTML, like Gecko) Chrome/122.0.0.0 Safari/537.36" etag="zTIb4v6lgCLWPyUOBaT9" version="24.0.6" type="device">
  <diagram name="Page 1" id="IdJF57ZcMdkUgBLRM6Qn">
    <mxGraphModel dx="1434" dy="784" grid="1" gridSize="40" guides="1" tooltips="1" connect="0" arrows="0" fold="1" page="1" pageScale="1" pageWidth="1920" pageHeight="5000" background="none" math="0" shadow="0">
      <root>
        <object label="" formName="Template" author="Curtis Reet" mobile="Yes/No" dynamicContentMode="Pending and Stored Data/Pending Data Only" id="0">
          <mxCell />
        </object>
        <mxCell id="1" parent="0" />
        <object label="" tooltip="&lt;b&gt;fieldType:&lt;/b&gt; %fieldType%" placeholders="1" fieldType="FormMaster" id="MeSqUqDjV39xURzECte_-1">
          <mxCell style="fontFamily=Tahoma;group;movable=0;resizable=0;rotatable=1;deletable=1;editable=1;locked=0;connectable=1;recursiveResize=0;" parent="1" vertex="1" connectable="0">
            <mxGeometry width="1440" height="200" as="geometry" />
          </mxCell>
        </object>
        <object label="" tooltip="&lt;b&gt;fieldType:&lt;/b&gt; %fieldType%" placeholders="1" id="TwPZSNBdaBiCKJOaZcf1-34">
          <mxCell style="fontFamily=Tahoma;rounded=0;whiteSpace=wrap;html=1;fillColor=#c2d9f7;strokeColor=none;movable=0;resizable=0;rotatable=0;deletable=0;editable=0;locked=1;connectable=0;" parent="MeSqUqDjV39xURzECte_-1" vertex="1">
            <mxGeometry width="1080" height="190" as="geometry" />
          </mxCell>
        </object>
        <object label="EMIS Web Health Care System - Oxford Health Foundation Trust - 100000" tooltip="&lt;b&gt;fieldType:&lt;/b&gt; %fieldType%" placeholders="1" id="TwPZSNBdaBiCKJOaZcf1-2">
          <mxCell style="fontFamily=Tahoma;rounded=0;whiteSpace=wrap;html=1;gradientColor=#E2EEFD;fillColor=#CBDEF7;strokeColor=#aecaf0;fontColor=#3e82d3;glass=1;movable=0;resizable=0;rotatable=0;deletable=0;editable=0;locked=1;connectable=0;" parent="MeSqUqDjV39xURzECte_-1" vertex="1">
            <mxGeometry width="1080" height="30" as="geometry" />
          </mxCell>
        </object>
        <object label="&lt;font style=&quot;font-size: 8px;&quot;&gt;Summary&lt;span style=&quot;font-size: 8px;&quot;&gt;&lt;span style=&quot;font-size: 8px;&quot;&gt;&amp;nbsp;&amp;nbsp;&amp;nbsp;&amp;nbsp;&lt;/span&gt;&lt;/span&gt;&lt;span style=&quot;font-size: 8px;&quot;&gt;&lt;span style=&quot;font-size: 8px;&quot;&gt;&amp;nbsp;&amp;nbsp;&amp;nbsp;&amp;nbsp;&lt;/span&gt;&lt;/span&gt;Consultations&lt;span style=&quot;font-size: 8px;&quot;&gt;&lt;span style=&quot;font-size: 8px;&quot;&gt;&amp;nbsp;&amp;nbsp;&amp;nbsp;&amp;nbsp;&lt;/span&gt;&lt;/span&gt;&lt;span style=&quot;font-size: 8px;&quot;&gt;&lt;span style=&quot;font-size: 8px;&quot;&gt;&amp;nbsp;&amp;nbsp;&amp;nbsp;&amp;nbsp;&lt;/span&gt;&lt;/span&gt;Medication&lt;span style=&quot;font-size: 8px;&quot;&gt;&amp;nbsp;&amp;nbsp;&amp;nbsp;&amp;nbsp;&lt;/span&gt;&lt;span style=&quot;border-color: var(--border-color); font-size: 8px;&quot;&gt;&lt;span style=&quot;font-size: 8px;&quot;&gt;&amp;nbsp;&amp;nbsp;&amp;nbsp;&amp;nbsp;&lt;/span&gt;&lt;/span&gt;Problems&lt;span style=&quot;font-size: 8px;&quot;&gt;&amp;nbsp;&amp;nbsp;&amp;nbsp;&amp;nbsp;&lt;/span&gt;&lt;span style=&quot;border-color: var(--border-color); font-size: 8px;&quot;&gt;&lt;span style=&quot;font-size: 8px;&quot;&gt;&amp;nbsp;&amp;nbsp;&amp;nbsp;&amp;nbsp;&lt;/span&gt;&lt;/span&gt;Investigations&lt;span style=&quot;font-size: 8px;&quot;&gt;&amp;nbsp;&amp;nbsp;&amp;nbsp;&amp;nbsp;&lt;/span&gt;&lt;span style=&quot;border-color: var(--border-color); font-size: 8px;&quot;&gt;&lt;span style=&quot;font-size: 8px;&quot;&gt;&amp;nbsp;&amp;nbsp;&amp;nbsp;&amp;nbsp;&lt;/span&gt;&lt;/span&gt;Care History&lt;span style=&quot;font-size: 8px;&quot;&gt;&amp;nbsp;&amp;nbsp;&amp;nbsp;&amp;nbsp;&lt;/span&gt;&lt;span style=&quot;border-color: var(--border-color); font-size: 8px;&quot;&gt;&lt;span style=&quot;font-size: 8px;&quot;&gt;&amp;nbsp;&amp;nbsp;&amp;nbsp;&amp;nbsp;&lt;/span&gt;&lt;/span&gt;Diary&lt;span style=&quot;font-size: 8px;&quot;&gt;&amp;nbsp;&amp;nbsp;&amp;nbsp;&amp;nbsp;&lt;/span&gt;&lt;span style=&quot;border-color: var(--border-color); font-size: 8px;&quot;&gt;&lt;span style=&quot;font-size: 8px;&quot;&gt;&amp;nbsp;&amp;nbsp;&amp;nbsp;&amp;nbsp;&lt;/span&gt;&lt;/span&gt;Documents&lt;span style=&quot;font-size: 8px;&quot;&gt;&amp;nbsp;&amp;nbsp;&amp;nbsp;&amp;nbsp;&lt;/span&gt;&lt;span style=&quot;border-color: var(--border-color); font-size: 8px;&quot;&gt;&lt;span style=&quot;font-size: 8px;&quot;&gt;&amp;nbsp;&amp;nbsp;&amp;nbsp;&amp;nbsp;&lt;/span&gt;&lt;/span&gt;Referrals&lt;span style=&quot;white-space: pre; font-size: 8px;&quot;&gt;&amp;nbsp;&amp;nbsp;&amp;nbsp;&amp;nbsp;&lt;/span&gt;&lt;span style=&quot;border-color: var(--border-color); font-size: 8px;&quot;&gt;&lt;span style=&quot;white-space: pre; font-size: 8px;&quot;&gt;&amp;nbsp;&amp;nbsp;&amp;nbsp;&amp;nbsp;&lt;/span&gt;&lt;/span&gt;Care Plans&lt;/font&gt;" tooltip="&lt;b&gt;fieldType:&lt;/b&gt; %fieldType%" placeholders="1" id="TwPZSNBdaBiCKJOaZcf1-3">
          <mxCell style="fontFamily=Tahoma;rounded=0;whiteSpace=wrap;html=1;align=left;spacingRight=9;spacingLeft=50;fontSize=8;fillColor=#bfdbff;strokeColor=#8db2e3;fontColor=#15428b;movable=0;resizable=0;rotatable=0;deletable=0;editable=0;locked=1;connectable=0;" parent="MeSqUqDjV39xURzECte_-1" vertex="1">
            <mxGeometry y="30" width="1080" height="30" as="geometry" />
          </mxCell>
        </object>
        <object label="" tooltip="&lt;b&gt;fieldType:&lt;/b&gt; %fieldType%" placeholders="1" id="TwPZSNBdaBiCKJOaZcf1-4">
          <mxCell style="fontFamily=Tahoma;ellipse;whiteSpace=wrap;html=1;gradientColor=#f6f8fa;gradientDirection=radial;fillColor=#bdc8d9;strokeColor=#7c8ca4;movable=0;resizable=0;rotatable=0;deletable=0;editable=0;locked=1;connectable=0;" parent="MeSqUqDjV39xURzECte_-1" vertex="1">
            <mxGeometry x="5" y="5" width="40" height="40" as="geometry" />
          </mxCell>
        </object>
        <object label="" tooltip="&lt;b&gt;fieldType:&lt;/b&gt; %fieldType%" placeholders="1" id="TwPZSNBdaBiCKJOaZcf1-6">
          <mxCell style="fontFamily=Tahoma;verticalLabelPosition=bottom;verticalAlign=top;html=1;shape=mxgraph.basic.polygon;polyCoords=[[0.9,0.15],[0.93,0.32],[0.93,0.45],[0.93,0.64],[0.91,0.81],[0.87,0.99],[0.87,0.99],[0.18,1],[0.17,0.73],[0.15,0.52],[0.11,0.3],[0.06,0.14],[0,0],[0.86,0]];polyline=0;strokeColor=#9ab3d5;gradientColor=#cadaef;fillColor=#dae6f6;movable=0;resizable=0;rotatable=0;deletable=0;editable=0;locked=1;connectable=0;" parent="MeSqUqDjV39xURzECte_-1" vertex="1">
            <mxGeometry x="37" y="4" width="100" height="22" as="geometry" />
          </mxCell>
        </object>
        <object label="" tooltip="&lt;b&gt;fieldType:&lt;/b&gt; %fieldType%" placeholders="1" id="TwPZSNBdaBiCKJOaZcf1-1">
          <mxCell style="fontFamily=Tahoma;ellipse;whiteSpace=wrap;html=1;fillColor=none;strokeColor=#008cff;movable=0;resizable=0;rotatable=0;deletable=0;editable=0;locked=1;connectable=0;" parent="MeSqUqDjV39xURzECte_-1" vertex="1">
            <mxGeometry x="1053" y="5" width="20" height="20" as="geometry" />
          </mxCell>
        </object>
        <object label="" tooltip="&lt;b&gt;fieldType:&lt;/b&gt; %fieldType%" placeholders="1" id="TwPZSNBdaBiCKJOaZcf1-7">
          <mxCell style="fontFamily=Tahoma;ellipse;whiteSpace=wrap;html=1;fillColor=none;movable=0;resizable=0;rotatable=0;deletable=0;editable=0;locked=1;connectable=0;" parent="MeSqUqDjV39xURzECte_-1" vertex="1">
            <mxGeometry x="1025" y="5" width="20" height="20" as="geometry" />
          </mxCell>
        </object>
        <object label="" tooltip="&lt;b&gt;fieldType:&lt;/b&gt; %fieldType%" placeholders="1" id="TwPZSNBdaBiCKJOaZcf1-8">
          <mxCell style="fontFamily=Tahoma;ellipse;whiteSpace=wrap;html=1;fillColor=none;movable=0;resizable=0;rotatable=0;deletable=0;editable=0;locked=1;connectable=0;" parent="MeSqUqDjV39xURzECte_-1" vertex="1">
            <mxGeometry x="996" y="5" width="20" height="20" as="geometry" />
          </mxCell>
        </object>
        <object label="" tooltip="&lt;b&gt;fieldType:&lt;/b&gt; %fieldType%" placeholders="1" id="TwPZSNBdaBiCKJOaZcf1-10">
          <mxCell style="fontFamily=Tahoma;rounded=0;whiteSpace=wrap;html=1;gradientColor=#f1f6fb;fillColor=#cadaed;strokeColor=#8db2e3;shadow=0;glass=1;movable=0;resizable=0;rotatable=0;deletable=0;editable=0;locked=1;connectable=0;" parent="MeSqUqDjV39xURzECte_-1" vertex="1">
            <mxGeometry y="60" width="1080" height="60" as="geometry" />
          </mxCell>
        </object>
        <object label="" tooltip="&lt;b&gt;fieldType:&lt;/b&gt; %fieldType%" placeholders="1" id="TwPZSNBdaBiCKJOaZcf1-22">
          <mxCell style="fontFamily=Tahoma;rounded=0;whiteSpace=wrap;html=1;strokeColor=none;fillColor=#c1d8f0;movable=0;resizable=0;rotatable=0;deletable=0;editable=0;locked=1;connectable=0;" parent="MeSqUqDjV39xURzECte_-1" vertex="1">
            <mxGeometry x="162" y="106" width="38" height="12" as="geometry" />
          </mxCell>
        </object>
        <object label="" tooltip="&lt;b&gt;fieldType:&lt;/b&gt; %fieldType%" placeholders="1" id="TwPZSNBdaBiCKJOaZcf1-29">
          <mxCell style="fontFamily=Tahoma;rounded=0;whiteSpace=wrap;html=1;strokeColor=none;fillColor=#c1d8f0;movable=0;resizable=0;rotatable=0;deletable=0;editable=0;locked=1;connectable=0;" parent="MeSqUqDjV39xURzECte_-1" vertex="1">
            <mxGeometry x="2" y="106" width="158" height="12" as="geometry" />
          </mxCell>
        </object>
        <object label="Consultation" tooltip="&lt;b&gt;fieldType:&lt;/b&gt; %fieldType%" placeholders="1" id="TwPZSNBdaBiCKJOaZcf1-11">
          <mxCell style="fontFamily=Tahoma;rounded=1;whiteSpace=wrap;html=1;arcSize=5;fontSize=8;verticalAlign=bottom;fillColor=none;strokeColor=#a7c4dc;spacing=0;spacingBottom=-1;fontColor=#3e7fcf;movable=0;resizable=0;rotatable=0;deletable=0;editable=0;locked=1;connectable=0;" parent="MeSqUqDjV39xURzECte_-1" vertex="1">
            <mxGeometry x="2" y="62" width="158" height="56" as="geometry" />
          </mxCell>
        </object>
        <object label="" tooltip="&lt;b&gt;fieldType:&lt;/b&gt; %fieldType%" placeholders="1" id="TwPZSNBdaBiCKJOaZcf1-23">
          <mxCell style="fontFamily=Tahoma;rounded=0;whiteSpace=wrap;html=1;strokeColor=none;fillColor=#c1d8f0;movable=0;resizable=0;rotatable=0;deletable=0;editable=0;locked=1;connectable=0;" parent="MeSqUqDjV39xURzECte_-1" vertex="1">
            <mxGeometry x="202" y="106" width="118" height="12" as="geometry" />
          </mxCell>
        </object>
        <object label="Patient F..." tooltip="&lt;b&gt;fieldType:&lt;/b&gt; %fieldType%" placeholders="1" id="TwPZSNBdaBiCKJOaZcf1-12">
          <mxCell style="fontFamily=Tahoma;rounded=1;whiteSpace=wrap;html=1;arcSize=5;verticalAlign=bottom;fontSize=8;fillColor=none;strokeColor=#a7c4dc;spacing=0;spacingBottom=-1;fontColor=#3e7fcf;movable=0;resizable=0;rotatable=0;deletable=0;editable=0;locked=1;connectable=0;" parent="MeSqUqDjV39xURzECte_-1" vertex="1">
            <mxGeometry x="162" y="62" width="38" height="56" as="geometry" />
          </mxCell>
        </object>
        <object label="" tooltip="&lt;b&gt;fieldType:&lt;/b&gt; %fieldType%" placeholders="1" id="TwPZSNBdaBiCKJOaZcf1-24">
          <mxCell style="fontFamily=Tahoma;rounded=0;whiteSpace=wrap;html=1;strokeColor=none;fillColor=#c1d8f0;movable=0;resizable=0;rotatable=0;deletable=0;editable=0;locked=1;connectable=0;" parent="MeSqUqDjV39xURzECte_-1" vertex="1">
            <mxGeometry x="322" y="106" width="198" height="12" as="geometry" />
          </mxCell>
        </object>
        <object label="Date/Consulter/Place" tooltip="&lt;b&gt;fieldType:&lt;/b&gt; %fieldType%" placeholders="1" id="TwPZSNBdaBiCKJOaZcf1-13">
          <mxCell style="fontFamily=Tahoma;rounded=1;whiteSpace=wrap;html=1;arcSize=5;verticalAlign=bottom;fontSize=8;fillColor=none;strokeColor=#a7c4dc;spacing=0;spacingBottom=-1;fontColor=#3e7fcf;movable=0;resizable=0;rotatable=0;deletable=0;editable=0;locked=1;connectable=0;" parent="MeSqUqDjV39xURzECte_-1" vertex="1">
            <mxGeometry x="202" y="62" width="118" height="56" as="geometry" />
          </mxCell>
        </object>
        <object label="" tooltip="&lt;b&gt;fieldType:&lt;/b&gt; %fieldType%" placeholders="1" id="TwPZSNBdaBiCKJOaZcf1-25">
          <mxCell style="fontFamily=Tahoma;rounded=0;whiteSpace=wrap;html=1;strokeColor=none;fillColor=#c1d8f0;movable=0;resizable=0;rotatable=0;deletable=0;editable=0;locked=1;connectable=0;" parent="MeSqUqDjV39xURzECte_-1" vertex="1">
            <mxGeometry x="522" y="106" width="38" height="12" as="geometry" />
          </mxCell>
        </object>
        <object label="Actions" tooltip="&lt;b&gt;fieldType:&lt;/b&gt; %fieldType%" placeholders="1" id="TwPZSNBdaBiCKJOaZcf1-14">
          <mxCell style="fontFamily=Tahoma;rounded=1;whiteSpace=wrap;html=1;arcSize=5;verticalAlign=bottom;fontSize=8;fillColor=none;strokeColor=#a7c4dc;spacing=0;spacingBottom=-1;fontColor=#3e7fcf;movable=0;resizable=0;rotatable=0;deletable=0;editable=0;locked=1;connectable=0;" parent="MeSqUqDjV39xURzECte_-1" vertex="1">
            <mxGeometry x="322" y="62" width="198" height="56" as="geometry" />
          </mxCell>
        </object>
        <object label="" tooltip="&lt;b&gt;fieldType:&lt;/b&gt; %fieldType%" placeholders="1" id="TwPZSNBdaBiCKJOaZcf1-26">
          <mxCell style="fontFamily=Tahoma;rounded=0;whiteSpace=wrap;html=1;strokeColor=none;fillColor=#c1d8f0;movable=0;resizable=0;rotatable=0;deletable=0;editable=0;locked=1;connectable=0;" parent="MeSqUqDjV39xURzECte_-1" vertex="1">
            <mxGeometry x="562" y="106" width="38" height="12" as="geometry" />
          </mxCell>
        </object>
        <object label="" tooltip="&lt;b&gt;fieldType:&lt;/b&gt; %fieldType%" placeholders="1" id="TwPZSNBdaBiCKJOaZcf1-27">
          <mxCell style="fontFamily=Tahoma;rounded=0;whiteSpace=wrap;html=1;strokeColor=none;fillColor=#c1d8f0;movable=0;resizable=0;rotatable=0;deletable=0;editable=0;locked=1;connectable=0;" parent="MeSqUqDjV39xURzECte_-1" vertex="1">
            <mxGeometry x="602" y="106" width="78" height="12" as="geometry" />
          </mxCell>
        </object>
        <object label="Print" tooltip="&lt;b&gt;fieldType:&lt;/b&gt; %fieldType%" placeholders="1" id="TwPZSNBdaBiCKJOaZcf1-15">
          <mxCell style="fontFamily=Tahoma;rounded=1;whiteSpace=wrap;html=1;arcSize=5;verticalAlign=bottom;fontSize=8;fillColor=none;strokeColor=#a7c4dc;spacing=0;spacingBottom=-1;fontColor=#3e7fcf;movable=0;resizable=0;rotatable=0;deletable=0;editable=0;locked=1;connectable=0;" parent="MeSqUqDjV39xURzECte_-1" vertex="1">
            <mxGeometry x="522" y="62" width="38" height="56" as="geometry" />
          </mxCell>
        </object>
        <object label="" tooltip="&lt;b&gt;fieldType:&lt;/b&gt; %fieldType%" placeholders="1" id="TwPZSNBdaBiCKJOaZcf1-28">
          <mxCell style="fontFamily=Tahoma;rounded=0;whiteSpace=wrap;html=1;strokeColor=none;fillColor=#c1d8f0;movable=0;resizable=0;rotatable=0;deletable=0;editable=0;locked=1;connectable=0;" parent="MeSqUqDjV39xURzECte_-1" vertex="1">
            <mxGeometry x="682" y="106" width="38" height="12" as="geometry" />
          </mxCell>
        </object>
        <object label="SetUp" tooltip="&lt;b&gt;fieldType:&lt;/b&gt; %fieldType%" placeholders="1" id="TwPZSNBdaBiCKJOaZcf1-16">
          <mxCell style="fontFamily=Tahoma;rounded=1;whiteSpace=wrap;html=1;arcSize=5;verticalAlign=bottom;fontSize=8;fillColor=none;strokeColor=#a7c4dc;spacing=0;spacingBottom=-1;fontColor=#3e7fcf;movable=0;resizable=0;rotatable=0;deletable=0;editable=0;locked=1;connectable=0;" parent="MeSqUqDjV39xURzECte_-1" vertex="1">
            <mxGeometry x="562" y="62" width="38" height="56" as="geometry" />
          </mxCell>
        </object>
        <object label="Search" tooltip="&lt;b&gt;fieldType:&lt;/b&gt; %fieldType%" placeholders="1" id="TwPZSNBdaBiCKJOaZcf1-17">
          <mxCell style="fontFamily=Tahoma;rounded=1;whiteSpace=wrap;html=1;arcSize=5;verticalAlign=bottom;fontSize=8;fillColor=none;strokeColor=#a7c4dc;spacing=0;spacingBottom=-1;fontColor=#3e7fcf;movable=0;resizable=0;rotatable=0;deletable=0;editable=0;locked=1;connectable=0;" parent="MeSqUqDjV39xURzECte_-1" vertex="1">
            <mxGeometry x="602" y="62" width="78" height="56" as="geometry" />
          </mxCell>
        </object>
        <object label="View" tooltip="&lt;b&gt;fieldType:&lt;/b&gt; %fieldType%" placeholders="1" id="TwPZSNBdaBiCKJOaZcf1-18">
          <mxCell style="fontFamily=Tahoma;rounded=1;whiteSpace=wrap;html=1;arcSize=5;verticalAlign=bottom;fontSize=8;fillColor=none;strokeColor=#a7c4dc;spacing=0;spacingBottom=-1;fontColor=#3e7fcf;movable=0;resizable=0;rotatable=0;deletable=0;editable=0;locked=1;connectable=0;" parent="MeSqUqDjV39xURzECte_-1" vertex="1">
            <mxGeometry x="682" y="62" width="38" height="56" as="geometry" />
          </mxCell>
        </object>
        <object label="" tooltip="&lt;b&gt;fieldType:&lt;/b&gt; %fieldType%" placeholders="1" id="TwPZSNBdaBiCKJOaZcf1-30">
          <mxCell style="fontFamily=Tahoma;rounded=1;whiteSpace=wrap;html=1;gradientColor=#006219;fillColor=#028c19;strokeWidth=0;perimeterSpacing=0;movable=0;resizable=0;rotatable=0;deletable=0;editable=0;locked=1;connectable=0;" parent="MeSqUqDjV39xURzECte_-1" vertex="1">
            <mxGeometry x="4" y="124" width="106" height="36" as="geometry" />
          </mxCell>
        </object>
        <object label="" tooltip="&lt;b&gt;fieldType:&lt;/b&gt; %fieldType%" placeholders="1" id="TwPZSNBdaBiCKJOaZcf1-31">
          <mxCell style="fontFamily=Tahoma;rounded=1;whiteSpace=wrap;html=1;gradientColor=#2269df;fillColor=#184fa9;strokeWidth=0;perimeterSpacing=0;movable=0;resizable=0;rotatable=0;deletable=0;editable=0;locked=1;connectable=0;" parent="MeSqUqDjV39xURzECte_-1" vertex="1">
            <mxGeometry x="36" y="124" width="1040" height="36" as="geometry" />
          </mxCell>
        </object>
        <object label="&lt;font color=&quot;#ffffff&quot;&gt;Active&lt;/font&gt;" tooltip="&lt;b&gt;fieldType:&lt;/b&gt; %fieldType%" placeholders="1" id="TwPZSNBdaBiCKJOaZcf1-32">
          <mxCell style="fontFamily=Tahoma;rounded=0;whiteSpace=wrap;html=1;strokeColor=none;fillColor=#236ae2;fontStyle=1;movable=0;resizable=0;rotatable=0;deletable=0;editable=0;locked=1;connectable=0;" parent="MeSqUqDjV39xURzECte_-1" vertex="1">
            <mxGeometry x="36" y="124" width="74" height="36" as="geometry" />
          </mxCell>
        </object>
        <object label="" tooltip="&lt;b&gt;fieldType:&lt;/b&gt; %fieldType%" placeholders="1" id="TwPZSNBdaBiCKJOaZcf1-33">
          <mxCell style="fontFamily=Tahoma;rounded=0;whiteSpace=wrap;html=1;fillColor=#898989;strokeColor=none;fontColor=#FFFFFF;movable=0;resizable=0;rotatable=0;deletable=0;editable=0;locked=1;connectable=0;" parent="MeSqUqDjV39xURzECte_-1" vertex="1">
            <mxGeometry y="164" width="1080" height="25" as="geometry" />
          </mxCell>
        </object>
        <object label="&amp;nbsp; %page%&amp;nbsp;&amp;nbsp;" tooltip="&lt;b&gt;fieldType:&lt;/b&gt; %fieldType%" placeholders="1" id="TwPZSNBdaBiCKJOaZcf1-35">
          <mxCell style="fontFamily=Tahoma;rounded=0;whiteSpace=wrap;html=1;strokeColor=none;align=left;labelBackgroundColor=#3a83e7;fontColor=#ffffff;fontStyle=1;spacing=4;movable=0;resizable=0;rotatable=0;deletable=0;editable=0;locked=1;connectable=0;" parent="MeSqUqDjV39xURzECte_-1" vertex="1">
            <mxGeometry x="120" y="166.5" width="957.5" height="20" as="geometry" />
          </mxCell>
        </object>
        <object label="Form Name:" tooltip="&lt;b&gt;fieldType:&lt;/b&gt; %fieldType%" placeholders="1" id="TwPZSNBdaBiCKJOaZcf1-36">
          <mxCell style="fontFamily=Tahoma;text;html=1;strokeColor=none;fillColor=none;align=left;verticalAlign=middle;whiteSpace=wrap;rounded=0;" parent="MeSqUqDjV39xURzECte_-1" vertex="1">
            <mxGeometry x="1080" width="160" height="40" as="geometry" />
          </mxCell>
        </object>
        <object placeholder="formName" placeholders="1" label="Template" id="TwPZSNBdaBiCKJOaZcf1-37">
          <mxCell style="fontFamily=Tahoma;text;html=1;strokeColor=none;fillColor=none;align=left;verticalAlign=middle;whiteSpace=wrap;rounded=0;glass=0;" parent="MeSqUqDjV39xURzECte_-1" vertex="1">
            <mxGeometry x="1240" width="200" height="40" as="geometry" />
          </mxCell>
        </object>
        <object label="Page Name:" tooltip="&lt;b&gt;fieldType:&lt;/b&gt; %fieldType%" placeholders="1" id="TwPZSNBdaBiCKJOaZcf1-38">
          <mxCell style="fontFamily=Tahoma;text;html=1;strokeColor=none;fillColor=none;align=left;verticalAlign=middle;whiteSpace=wrap;rounded=0;" parent="MeSqUqDjV39xURzECte_-1" vertex="1">
            <mxGeometry x="1080" y="40" width="160" height="40" as="geometry" />
          </mxCell>
        </object>
        <object placeholders="1" label="%page%" id="TwPZSNBdaBiCKJOaZcf1-39">
          <mxCell style="fontFamily=Tahoma;text;html=1;strokeColor=none;fillColor=none;align=left;verticalAlign=middle;whiteSpace=wrap;rounded=0;glass=0;movable=1;resizable=1;rotatable=1;deletable=1;editable=1;locked=0;connectable=1;" parent="MeSqUqDjV39xURzECte_-1" vertex="1">
            <mxGeometry x="1240" y="40" width="200" height="40" as="geometry" />
          </mxCell>
        </object>
        <object label="&lt;font color=&quot;#ffffff&quot;&gt;Patient, XXTest (Unknown)&lt;/font&gt;" tooltip="&lt;b&gt;fieldType:&lt;/b&gt; %fieldType%" placeholders="1" id="z5nmdul99bLV8xO7L-LQ-2">
          <mxCell style="fontFamily=Tahoma;text;html=1;strokeColor=none;fillColor=none;align=left;verticalAlign=middle;whiteSpace=wrap;rounded=0;fontStyle=1;movable=0;resizable=0;rotatable=0;deletable=0;editable=0;locked=1;connectable=0;" parent="MeSqUqDjV39xURzECte_-1" vertex="1">
            <mxGeometry x="121" y="133.5" width="170" height="17" as="geometry" />
          </mxCell>
        </object>
        <object label="&lt;span style=&quot;font-weight: normal;&quot;&gt;&lt;font color=&quot;#b3dbf0&quot;&gt;Born&amp;nbsp; &amp;nbsp; &amp;nbsp;&lt;/font&gt;&lt;/span&gt;&lt;font color=&quot;#ffffff&quot;&gt;01-Jan-1900 (0y)&lt;/font&gt;&lt;span style=&quot;color: rgb(255, 255, 255); white-space: pre;&quot;&gt;&#x9;&lt;span style=&quot;white-space: pre;&quot;&gt;&#x9;&lt;/span&gt;&lt;/span&gt;&lt;span style=&quot;font-weight: normal;&quot;&gt;&lt;font color=&quot;#b3dbf0&quot;&gt;Gender&amp;nbsp; &amp;nbsp; &amp;nbsp;&lt;/font&gt;&lt;/span&gt;&lt;font color=&quot;#ffffff&quot;&gt;Unknown&lt;/font&gt;&lt;span style=&quot;color: rgb(255, 255, 255); white-space: pre;&quot;&gt;&#x9;&lt;span style=&quot;white-space: pre;&quot;&gt;&#x9;&lt;/span&gt;&lt;/span&gt;&lt;span style=&quot;font-weight: normal;&quot;&gt;&lt;font color=&quot;#b3dbf0&quot;&gt;NHS No.&amp;nbsp; &amp;nbsp;&amp;nbsp;&lt;/font&gt;&lt;/span&gt;&lt;font color=&quot;#ffffff&quot;&gt;0123456789&lt;/font&gt;" tooltip="&lt;b&gt;fieldType:&lt;/b&gt; %fieldType%" placeholders="1" id="z5nmdul99bLV8xO7L-LQ-3">
          <mxCell style="fontFamily=Tahoma;text;html=1;strokeColor=none;fillColor=none;align=left;verticalAlign=middle;whiteSpace=wrap;rounded=0;fontStyle=1;movable=0;resizable=0;rotatable=0;deletable=0;editable=0;locked=1;connectable=0;" parent="MeSqUqDjV39xURzECte_-1" vertex="1">
            <mxGeometry x="339.25" y="133.5" width="511.75" height="17" as="geometry" />
          </mxCell>
        </object>
        <object label="&lt;font color=&quot;#0057a8&quot; style=&quot;font-size: 16px;&quot;&gt;em&lt;/font&gt;&lt;font color=&quot;#2cb0eb&quot; style=&quot;font-size: 16px;&quot;&gt;i&lt;/font&gt;&lt;font color=&quot;#0057a8&quot; style=&quot;font-size: 16px;&quot;&gt;s&lt;/font&gt;" tooltip="&lt;b&gt;fieldType:&lt;/b&gt; %fieldType%" placeholders="1" id="z5nmdul99bLV8xO7L-LQ-5">
          <mxCell style="fontFamily=Arimo;text;html=1;strokeColor=none;fillColor=none;align=center;verticalAlign=middle;whiteSpace=wrap;rounded=0;fontSize=16;fontStyle=1;movable=0;resizable=0;rotatable=0;deletable=0;editable=0;locked=1;connectable=0;fontSource=https%3A%2F%2Ffonts.googleapis.com%2Fcss%3Ffamily%3DArimo;" parent="MeSqUqDjV39xURzECte_-1" vertex="1">
            <mxGeometry x="10" y="22" width="30" height="10" as="geometry" />
          </mxCell>
        </object>
        <object label="" tooltip="&lt;b&gt;fieldType:&lt;/b&gt; %fieldType%" placeholders="1" id="z5nmdul99bLV8xO7L-LQ-7">
          <mxCell style="fontFamily=Tahoma;verticalLabelPosition=bottom;verticalAlign=top;html=1;shape=mxgraph.basic.moon;flipV=0;flipH=0;rotation=95;strokeColor=none;gradientColor=#3ab5eb;gradientDirection=radial;fillColor=#89d2f2;movable=0;resizable=0;rotatable=0;deletable=0;editable=0;locked=1;connectable=0;" parent="MeSqUqDjV39xURzECte_-1" vertex="1">
            <mxGeometry x="18" y="2" width="10" height="30" as="geometry" />
          </mxCell>
        </object>
        <object label="&lt;font color=&quot;#ffffff&quot;&gt;Pages&amp;nbsp; &amp;nbsp; &amp;nbsp;&lt;font face=&quot;Verdana&quot;&gt;&amp;lt;&amp;nbsp; &amp;nbsp; &amp;nbsp; &amp;gt;&lt;/font&gt;&lt;/font&gt;" tooltip="&lt;b&gt;fieldType:&lt;/b&gt; %fieldType%" placeholders="1" id="z5nmdul99bLV8xO7L-LQ-11">
          <mxCell style="fontFamily=Tahoma;text;html=1;strokeColor=none;fillColor=none;align=left;verticalAlign=middle;whiteSpace=wrap;rounded=0;fontStyle=1;movable=0;resizable=0;rotatable=0;deletable=0;editable=0;locked=1;connectable=0;" parent="MeSqUqDjV39xURzECte_-1" vertex="1">
            <mxGeometry x="4" y="168" width="170" height="17" as="geometry" />
          </mxCell>
        </object>
        <object label="" tooltip="&lt;b&gt;fieldType:&lt;/b&gt; %fieldType%" placeholders="1" id="MeSqUqDjV39xURzECte_-3">
          <mxCell style="fontFamily=Tahoma;whiteSpace=wrap;html=1;shape=mxgraph.basic.document;movable=0;resizable=0;rotatable=0;deletable=0;editable=0;locked=1;connectable=0;" parent="MeSqUqDjV39xURzECte_-1" vertex="1">
            <mxGeometry x="39" y="67" width="20" height="24" as="geometry" />
          </mxCell>
        </object>
        <object label="" tooltip="&lt;b&gt;fieldType:&lt;/b&gt; %fieldType%" placeholders="1" id="MeSqUqDjV39xURzECte_-4">
          <mxCell style="fontFamily=Tahoma;shape=cross;whiteSpace=wrap;html=1;size=0.33602875112309033;gradientColor=#9cd589;fillColor=#269b3b;movable=0;resizable=0;rotatable=0;deletable=0;editable=0;locked=1;connectable=0;" parent="MeSqUqDjV39xURzECte_-1" vertex="1">
            <mxGeometry x="45" y="77" width="15" height="15" as="geometry" />
          </mxCell>
        </object>
        <object label="" tooltip="&lt;b&gt;fieldType:&lt;/b&gt; %fieldType%" placeholders="1" id="MeSqUqDjV39xURzECte_-5">
          <mxCell style="fontFamily=Tahoma;shape=card;whiteSpace=wrap;html=1;flipV=1;size=6;gradientColor=#3388ff;fillColor=#8ec5ff;strokeColor=#2437af;movable=0;resizable=0;rotatable=0;deletable=0;editable=0;locked=1;connectable=0;" parent="MeSqUqDjV39xURzECte_-1" vertex="1">
            <mxGeometry x="10" y="67" width="20" height="20" as="geometry" />
          </mxCell>
        </object>
        <object label="" tooltip="&lt;b&gt;fieldType:&lt;/b&gt; %fieldType%" placeholders="1" id="Pp4qKzhGQ8vHZ0xazVb3-1030">
          <mxCell style="fontFamily=Tahoma;rounded=0;whiteSpace=wrap;html=1;strokeColor=none;gradientColor=#69a3f0;fillColor=#0f4bc5;strokeWidth=0.5;perimeterSpacing=10;movable=0;resizable=0;rotatable=0;deletable=0;editable=0;locked=1;connectable=0;" parent="MeSqUqDjV39xURzECte_-1" vertex="1">
            <mxGeometry x="16" y="80" width="9" height="6.5" as="geometry" />
          </mxCell>
        </object>
        <object label="" tooltip="&lt;b&gt;fieldType:&lt;/b&gt; %fieldType%" placeholders="1" id="Pp4qKzhGQ8vHZ0xazVb3-1031">
          <mxCell style="fontFamily=Tahoma;rounded=0;whiteSpace=wrap;html=1;strokeColor=none;gradientColor=#9898af;fillColor=#bfbfcf;movable=0;resizable=0;rotatable=0;deletable=0;editable=0;locked=1;connectable=0;" parent="MeSqUqDjV39xURzECte_-1" vertex="1">
            <mxGeometry x="16.25" y="80.25" width="6" height="6" as="geometry" />
          </mxCell>
        </object>
        <object label="" tooltip="&lt;b&gt;fieldType:&lt;/b&gt; %fieldType%" placeholders="1" id="Pp4qKzhGQ8vHZ0xazVb3-1032">
          <mxCell style="fontFamily=Tahoma;shape=trapezoid;perimeter=trapezoidPerimeter;whiteSpace=wrap;html=1;fixedSize=1;flipH=0;flipV=1;size=1.1666666666666625;strokeColor=none;movable=0;resizable=0;rotatable=0;deletable=0;editable=0;locked=1;connectable=0;" parent="MeSqUqDjV39xURzECte_-1" vertex="1">
            <mxGeometry x="12" y="68" width="16" height="10" as="geometry" />
          </mxCell>
        </object>
        <object label="Author:" tooltip="&lt;b&gt;fieldType:&lt;/b&gt; %fieldType%" placeholders="1" id="Pp4qKzhGQ8vHZ0xazVb3-1033">
          <mxCell style="fontFamily=Tahoma;text;html=1;strokeColor=none;fillColor=none;align=left;verticalAlign=middle;whiteSpace=wrap;rounded=0;" parent="MeSqUqDjV39xURzECte_-1" vertex="1">
            <mxGeometry x="1080" y="80" width="160" height="40" as="geometry" />
          </mxCell>
        </object>
        <object placeholder="author" placeholders="1" id="Pp4qKzhGQ8vHZ0xazVb3-1034">
          <mxCell style="fontFamily=Tahoma;text;html=1;strokeColor=none;fillColor=none;align=left;verticalAlign=middle;whiteSpace=wrap;rounded=0;glass=0;" parent="MeSqUqDjV39xURzECte_-1" vertex="1">
            <mxGeometry x="1240" y="80" width="200" height="40" as="geometry" />
          </mxCell>
        </object>
        <object label="Mobile:" tooltip="&lt;b&gt;fieldType:&lt;/b&gt; %fieldType%" placeholders="1" id="U6L3AmuIjdlOFIYLOf1O-3">
          <mxCell style="fontFamily=Tahoma;text;html=1;strokeColor=none;fillColor=none;align=left;verticalAlign=middle;whiteSpace=wrap;rounded=0;" parent="MeSqUqDjV39xURzECte_-1" vertex="1">
            <mxGeometry x="1080" y="120" width="160" height="40" as="geometry" />
          </mxCell>
        </object>
        <object placeholder="mobile" placeholders="1" label="Yes/No" id="U6L3AmuIjdlOFIYLOf1O-4">
          <mxCell style="fontFamily=Tahoma;text;html=1;strokeColor=none;fillColor=none;align=left;verticalAlign=middle;whiteSpace=wrap;rounded=0;glass=0;" parent="MeSqUqDjV39xURzECte_-1" vertex="1">
            <mxGeometry x="1240" y="118" width="200" height="40" as="geometry" />
          </mxCell>
        </object>
        <object label="Dynamic Content Mode:" tooltip="&lt;b&gt;fieldType:&lt;/b&gt; %fieldType%" placeholders="1" id="IPUEVnua3oA1jlcThNDc-10">
          <mxCell style="fontFamily=Tahoma;text;html=1;strokeColor=none;fillColor=none;align=left;verticalAlign=middle;whiteSpace=wrap;rounded=0;" vertex="1" parent="MeSqUqDjV39xURzECte_-1">
            <mxGeometry x="1080" y="160" width="160" height="40" as="geometry" />
          </mxCell>
        </object>
        <object placeholder="dynamicContentMode" placeholders="1" label="Pending and Stored Data/Pending Data Only123123" id="IPUEVnua3oA1jlcThNDc-11">
          <mxCell style="fontFamily=Tahoma;text;html=1;strokeColor=none;fillColor=none;align=left;verticalAlign=middle;whiteSpace=wrap;rounded=0;glass=0;" vertex="1" parent="MeSqUqDjV39xURzECte_-1">
            <mxGeometry x="1240" y="156.5" width="200" height="40" as="geometry" />
          </mxCell>
        </object>
        <object label="" fieldType="Section" id="0dErxD7qmgPHcpw-KyX1-1">
          <mxCell style="fontFamily=Tahoma;group;fillColor=default;recursiveResize=0;" parent="1" vertex="1" connectable="0">
            <mxGeometry y="200" width="1520" height="40" as="geometry" />
          </mxCell>
        </object>
        <object label="Section Name" tooltip="&lt;b&gt;fieldType:&lt;/b&gt; %fieldType%" placeholders="1" id="0dErxD7qmgPHcpw-KyX1-2">
          <mxCell style="fontFamily=Tahoma;rounded=0;whiteSpace=wrap;html=1;strokeColor=none;fillColor=#e5ecf9;align=left;fontColor=#5565d6;spacingLeft=10;movable=0;resizable=0;" parent="0dErxD7qmgPHcpw-KyX1-1" vertex="1">
            <mxGeometry x="10" width="1060" height="20" as="geometry" />
          </mxCell>
        </object>
        <object label="Code/Free Text Entry:" tooltip="&lt;b&gt;fieldType:&lt;/b&gt; %fieldType%" placeholders="1" id="0dErxD7qmgPHcpw-KyX1-3">
          <mxCell style="fontFamily=Tahoma;text;html=1;strokeColor=none;fillColor=#EA6B66;align=center;verticalAlign=middle;whiteSpace=wrap;rounded=0;movable=0;resizable=0;rotatable=0;deletable=0;editable=0;locked=1;connectable=0;" parent="0dErxD7qmgPHcpw-KyX1-1" vertex="1">
            <mxGeometry x="1200" width="200" height="20" as="geometry" />
          </mxCell>
        </object>
        <object label="10000000001" tooltip="&lt;b&gt;fieldType:&lt;/b&gt; %fieldType%" placeholders="1" id="0dErxD7qmgPHcpw-KyX1-4">
          <mxCell style="fontFamily=Tahoma;text;html=1;strokeColor=none;fillColor=#EA6B66;align=center;verticalAlign=middle;whiteSpace=wrap;rounded=0;movable=1;resizable=1;rotatable=1;deletable=1;editable=1;locked=0;connectable=1;" parent="0dErxD7qmgPHcpw-KyX1-1" vertex="1">
            <mxGeometry x="1200" y="20" width="200" height="20" as="geometry" />
          </mxCell>
        </object>
        <object label="Consultation Section:" tooltip="&lt;b&gt;fieldType:&lt;/b&gt; %fieldType%" placeholders="1" id="QSr0hvvuBg8OurADa9qp-145">
          <mxCell style="fontFamily=Tahoma;text;html=1;strokeColor=none;fillColor=#52EA5C;align=center;verticalAlign=middle;whiteSpace=wrap;rounded=0;movable=0;resizable=0;rotatable=0;deletable=0;editable=0;locked=1;connectable=0;" parent="0dErxD7qmgPHcpw-KyX1-1" vertex="1">
            <mxGeometry x="1400" width="120" height="20" as="geometry" />
          </mxCell>
        </object>
        <object label="Section" tooltip="&lt;b&gt;fieldType:&lt;/b&gt; %fieldType%" placeholders="1" id="QSr0hvvuBg8OurADa9qp-158">
          <mxCell style="fontFamily=Tahoma;text;html=1;strokeColor=none;fillColor=#52EA5C;align=center;verticalAlign=middle;whiteSpace=wrap;rounded=0;movable=1;resizable=1;rotatable=1;deletable=1;editable=1;locked=0;connectable=1;" parent="0dErxD7qmgPHcpw-KyX1-1" vertex="1">
            <mxGeometry x="1400" y="20" width="120" height="20" as="geometry" />
          </mxCell>
        </object>
      </root>
    </mxGraphModel>
  </diagram>
</mxfile>
